<svg width="29" height="30" viewBox="0 0 29 30" fill="none" xmlns="http://www.w3.org/2000/svg">
<path d="M24.167 22.5H21.7503V11.5625L14.5003 16.25L7.25033 11.5625V22.5H4.83366V7.5H6.28366L14.5003 12.8125L22.717 7.5H24.167M24.167 5H4.83366C3.49241 5 2.41699 6.1125 2.41699 7.5V22.5C2.41699 23.163 2.6716 23.7989 3.12482 24.2678C3.57803 24.7366 4.19272 25 4.83366 25H24.167C24.8079 25 25.4226 24.7366 25.8758 24.2678C26.329 23.7989 26.5837 23.163 26.5837 22.5V7.5C26.5837 6.83696 26.329 6.20107 25.8758 5.73223C25.4226 5.26339 24.8079 5 24.167 5Z" fill="white"/>
</svg>
