<svg width="27" height="27" viewBox="0 0 27 27" fill="none" xmlns="http://www.w3.org/2000/svg">
<path d="M21.4316 5.52382C20.4002 4.48198 19.1717 3.65594 17.8177 3.09387C16.4637 2.53181 15.0114 2.24496 13.5454 2.25007C7.40289 2.25007 2.39664 7.25632 2.39664 13.3988C2.39664 15.3676 2.91414 17.2801 3.88164 18.9676L2.30664 24.7501L8.21289 23.1976C9.84414 24.0863 11.6779 24.5588 13.5454 24.5588C19.6879 24.5588 24.6941 19.5526 24.6941 13.4101C24.6941 10.4288 23.5354 7.62757 21.4316 5.52382ZM13.5454 22.6688C11.8804 22.6688 10.2491 22.2188 8.82039 21.3751L8.48289 21.1726L4.97289 22.0951L5.90664 18.6751L5.68164 18.3263C4.75661 16.8492 4.26542 15.1417 4.26414 13.3988C4.26414 8.29132 8.42664 4.12882 13.5341 4.12882C16.0091 4.12882 18.3379 5.09632 20.0816 6.85132C20.9451 7.71078 21.6293 8.73306 22.0947 9.85892C22.5601 10.9848 22.7974 12.1918 22.7929 13.4101C22.8154 18.5176 18.6529 22.6688 13.5454 22.6688ZM18.6304 15.7388C18.3491 15.6038 16.9766 14.9288 16.7291 14.8276C16.4704 14.7376 16.2904 14.6926 16.0991 14.9626C15.9079 15.2438 15.3791 15.8738 15.2216 16.0538C15.0641 16.2451 14.8954 16.2676 14.6141 16.1213C14.3329 15.9863 13.4329 15.6826 12.3754 14.7376C11.5429 13.9951 10.9916 13.0838 10.8229 12.8026C10.6654 12.5213 10.8004 12.3751 10.9466 12.2288C11.0704 12.1051 11.2279 11.9026 11.3629 11.7451C11.4979 11.5876 11.5541 11.4638 11.6441 11.2838C11.7341 11.0926 11.6891 10.9351 11.6216 10.8001C11.5541 10.6651 10.9916 9.29257 10.7666 8.73007C10.5416 8.19007 10.3054 8.25757 10.1366 8.24632H9.59664C9.40539 8.24632 9.11289 8.31382 8.85414 8.59507C8.60664 8.87632 7.88664 9.55132 7.88664 10.9238C7.88664 12.2963 8.88789 13.6238 9.02289 13.8038C9.15789 13.9951 10.9916 16.8076 13.7816 18.0113C14.4454 18.3038 14.9629 18.4726 15.3679 18.5963C16.0316 18.8101 16.6391 18.7763 17.1229 18.7088C17.6629 18.6301 18.7766 18.0338 19.0016 17.3813C19.2379 16.7288 19.2379 16.1776 19.1591 16.0538C19.0804 15.9301 18.9116 15.8738 18.6304 15.7388Z" fill="white"/>
</svg>
