<?xml version="1.0" encoding="UTF-8" standalone="no"?> <svg id="Layer_1" data-name="Layer 1" xmlns="http://www.w3.org/2000/svg" viewBox="0 0 512 512"><defs><style>.cls-1{fill:#2d4a60;}.cls-2{fill:#eaeff0;}.cls-3{fill:#fd3730;}</style></defs><title>Recording</title><rect class="cls-1" x="10.666" y="74.667" width="490.667" height="362.667" rx="53.333"/><path class="cls-2" d="M64,192a10.667,10.667,0,0,1-10.667-10.667V138.667a21.358,21.358,0,0,1,21.333-21.334h42.667a10.667,10.667,0,0,1,0,21.334H74.666v42.666A10.667,10.667,0,0,1,64,192Z"/><path class="cls-2" d="M437.333,394.667H394.666a10.667,10.667,0,0,1,0-21.334h42.667V330.667a10.667,10.667,0,1,1,21.333,0v42.666A21.357,21.357,0,0,1,437.333,394.667Z"/><path class="cls-2" d="M448,192a10.667,10.667,0,0,1-10.667-10.667V138.667H394.666a10.667,10.667,0,0,1,0-21.334h42.667a21.357,21.357,0,0,1,21.333,21.334v42.666A10.667,10.667,0,0,1,448,192Z"/><path class="cls-2" d="M117.333,394.667H74.666a21.357,21.357,0,0,1-21.333-21.334V330.667a10.667,10.667,0,1,1,21.333,0v42.666h42.667a10.667,10.667,0,1,1,0,21.334Z"/><path class="cls-2" d="M307.966,224a10.667,10.667,0,1,0,0-21.333H265.3a10.667,10.667,0,0,0-10.667,10.667v85.337A10.667,10.667,0,0,0,265.3,309.335h42.665a10.667,10.667,0,1,0,0-21.333h-32V266.667h32a10.667,10.667,0,0,0,0-21.334h-32V224Z"/><path class="cls-2" d="M403.124,278.629a32,32,0,1,1,0-45.258,10.666,10.666,0,1,0,15.085-15.084,53.336,53.336,0,1,0,0,75.425,10.666,10.666,0,1,0-15.085-15.083Z"/><path class="cls-2" d="M241.835,234.666a32.036,32.036,0,0,0-32-32H176.006a10.667,10.667,0,0,0-10.667,10.667v85.337a10.667,10.667,0,0,0,21.334,0V272.631l37.32,33.93a10.666,10.666,0,1,0,14.35-15.785l-26.581-24.167A32.042,32.042,0,0,0,241.835,234.666Zm-32,10.667H186.673V224h23.162a10.668,10.668,0,0,1,0,21.335Z"/><circle class="cls-3" cx="101.333" cy="256" r="32"/></svg>